<svg xmlns="http://www.w3.org/2000/svg" viewBox="0 0 1149 938.11"><defs><style>.cls-1{isolation:isolate;}.cls-2{fill:#4a3b7f;}.cls-3{fill:#3f326b;}.cls-4{fill:#43296d;}.cls-5{fill:#2b1c49;}.cls-6{fill:#392a5e;}.cls-7{fill:#2b254c;}.cls-30,.cls-8{fill:#1d1000;}.cls-9{opacity:0.51;}.cls-10{fill:#0b0b23;}.cls-11{fill:#272741;}.cls-12,.cls-17{fill:#f2f2f2;}.cls-13{fill:#202033;}.cls-14{fill:#ccc;}.cls-15,.cls-29{fill:none;}.cls-15,.cls-17,.cls-18,.cls-29{stroke:#1a1a1a;}.cls-15,.cls-16,.cls-17,.cls-18,.cls-20,.cls-23,.cls-28,.cls-29,.cls-30{stroke-miterlimit:10;}.cls-15{stroke-width:3px;}.cls-16,.cls-22,.cls-23{fill:#ecbcb4;}.cls-16{stroke:#ecbcb4;}.cls-17{stroke-width:0.75px;}.cls-18{fill:#1a1a1a;}.cls-19{fill:#999;}.cls-20,.cls-21{fill:#271500;}.cls-20{stroke:#271500;}.cls-23{stroke:#e892bd;stroke-width:0.25px;}.cls-24{fill:#c6958f;}.cls-25{fill:#4d4d4d;}.cls-26{fill:#b3b3b3;}.cls-27{fill:gray;}.cls-28{fill:#e2ccd7;stroke:#333;opacity:0.63;mix-blend-mode:multiply;}.cls-30{stroke:#1d1000;}.cls-31{fill:#e89992;}.cls-32{fill:#423b9e;}.cls-33{fill:#201b5b;}.cls-34{fill:#13123d;}.cls-35{fill:#4d497c;}</style></defs><title>Trabajando en Escritorio</title><g class="cls-1"><g id="silla"><rect class="cls-2" x="467.05" y="564.95" width="131.35" height="64.34" rx="4.67" ry="4.67"/><rect class="cls-3" x="429.52" y="530.1" width="206.41" height="45.57" rx="4.67" ry="4.67"/><rect class="cls-3" x="517.98" y="621.24" width="26.81" height="163.52"/><path class="cls-4" d="M367.22,268S335,380.59,412.79,461c48.76,50.44,0,179.61,0,179.61s-21.45,48.25,123.31,61.66l197-68.36S627.24,654,629.92,608.45s37.53-72.38-8-168.88S576.31,369.87,579,268C579,268,489.19,180.88,367.22,268Z" transform="translate(-27.5 -149.39)"/><path class="cls-5" d="M341.75,269.34s-30.83,108.57,46.91,189c48.76,50.44,0,179.61,0,179.61s-1.34,63,143.42,76.4l2.68-45.57s-115.27,2.68-112.59-42.89,38.87-89.8-6.7-186.31S369.9,369.87,372.58,268C372.58,268,564.25,191.6,341.75,269.34Z" transform="translate(-27.5 -149.39)"/><path class="cls-6" d="M532.08,714.34s193-29.49,195.69-48.25,10.72-42.89-8-32.17-185,34.85-185,34.85Z" transform="translate(-27.5 -149.39)"/><rect class="cls-3" x="588.27" y="902.76" width="10.89" height="82.3" transform="translate(-542.26 915.93) rotate(-64.08)"/><rect class="cls-3" x="516.35" y="904.49" width="10.89" height="82.3" transform="translate(1090.33 -104.45) rotate(62.38)"/><circle class="cls-7" cx="484.12" cy="966.84" r="10.72" transform="translate(-581.08 1121.33) rotate(-79.72)"/><circle class="cls-7" cx="634.15" cy="966.57" r="10.72" transform="translate(-282.34 78.18) rotate(-17)"/><rect class="cls-3" x="554.02" y="931.47" width="10.89" height="50.93" transform="translate(-38.45 -142.91) rotate(-0.66)"/><circle class="cls-7" cx="558.89" cy="979.73" r="10.72" transform="translate(-524.7 434.23) rotate(-39.74)"/><path class="cls-8" d="M500,167s-3-14-15-15c0,0,11,8,10,19Z" transform="translate(-27.5 -149.39)"/></g><g id="Capa_1" data-name="Capa 1"><g class="cls-9"><path class="cls-10" d="M1176.5,1019.5c0,37.56-257.21,68-574.5,68s-574.5-30.44-574.5-68,257.21-68,574.5-68S1176.5,981.94,1176.5,1019.5Z" transform="translate(-27.5 -149.39)"/></g><path class="cls-11" d="M492.36,587.09c-27.16,5.06-37.07,51.17,21.45,59,60.32,8,158.16-1.34,158.16-1.34S834.14,616.58,613,1016l124.65-1.34s0-45.57-75.06-45.57c0,0,189-329.73,103.21-348.49C753.54,617.92,629.07,561.62,492.36,587.09Z" transform="translate(-27.5 -149.39)"/><path class="cls-12" d="M615.27,310.2l45.84,134.07s5.36,21.45,64.34,69.1l-11.91,17.87s-91.63-55.42-81.91-97.7l-34.25-81Z" transform="translate(-27.5 -149.39)"/><path class="cls-13" d="M706.69,634.6S793.43,626,760.3,736.47c-16.08,53.61-32.17,109.91-32.17,109.91L696,910.71,666.5,964.57S808.55,648,706.69,658.73C590.75,670.93,618.22,618.51,706.69,634.6Z" transform="translate(-27.5 -149.39)"/><path class="cls-11" d="M442.64,614.49s2.68,32.17,44.23,38.87C545.15,662.76,578,656,578,656s152.8-63-128.67,374L574,1028.66s14.74-42.89-60.32-42.89c0,0,144.76-201.05,160.84-327,1.85-14.47-26.93-39.11-48.25-40.21L485.53,586.35Z" transform="translate(-27.5 -149.39)"/><path class="cls-12" d="M642.05,461.25c-3.82-7-9.19-16.5-9.19-16.5l.88,10.91s5.33,42.82,79.8,75.59l5.44-8.16S659.92,494,642.05,461.25Z" transform="translate(-27.5 -149.39)"/><path class="cls-13" d="M456.93,605.11s34,49.59,130.46,41.55c0,0,57.63-12.06,22.79,87.12S556.57,870.5,556.57,870.5L511,945.56s-53.56,70.2-32.14,37.78c17-25.66,115.24-214.7,126.86-292,1.74-11.57,7.67-33.46-8.94-32.6-6.17.32-11.56-.08-20.11,0C460.11,660.44,444,656,440,627.9,432.18,573.48,456.93,605.11,456.93,605.11Z" transform="translate(-27.5 -149.39)"/><path class="cls-12" d="M460.06,572.94H623.58s0-50.93,5.36-72.38S638,420.81,638,394s-8-73-8-73c-9-19-22-16.13-32.13-16.13H486.21a21.74,21.74,0,0,0-21.75,22.55c1.5,39.85,2.4,123.28-13,174C432,565.17,460.06,572.94,460.06,572.94Z" transform="translate(-27.5 -149.39)"/><path class="cls-14" d="M452,599.75l24.13-13.4s-23.53-30.08-2.68-77.74C527.08,361.17,480,323,480,323c-11,0-8.47,15.67-8,28,1.5,39.85-5.13,99.71-20.58,150.46C432,565.17,452,599.75,452,599.75Z" transform="translate(-27.5 -149.39)"/><path class="cls-15" d="M554.18,333.17c5.12.56,31,122.25,0,239.77" transform="translate(-27.5 -149.39)"/><path class="cls-16" d="M496.5,248.5c1.69,12.79,15.7,19,19.21,26.06,3.86,7.74,5.1,16.7,5.26,24.15.05,2.76,0,5.31-.16,7.5a4.72,4.72,0,0,0,0,.65l21,34.2,13.41-8,.32,1.42,1-1.42,3.91,4.56.11-4.56,7.72,5.15.16-.3,8.23,4.1,9.09-22.08c-1.4-4.86-2.63-10.14-3.62-15-1.64-7.9-2.71-14.71-3-16.91,9.6-1.85,9.6-1.85,14-7.8,10.15-13.66,14-22.77,15.07-50.74,0-1,.06-1.94.09-3,.18-5.69.25-12.12.25-19.47,0-56.21-62.19-45.74-92.86-25.33-12.68,8.44-21.12,8.44-25.33,33.78C488.4,227.32,495,236.76,496.5,248.5Z" transform="translate(-27.5 -149.39)"/><polygon class="cls-17" points="529.07 183.63 528.05 185.05 515.66 202.39 484.83 155.48 493.47 149.31 494.22 148.78 494.22 154.14 529.07 183.63"/><polygon class="cls-17" points="563.92 156.82 558.29 170.49 549.2 192.58 545.15 202.39 532.98 188.19 529.07 183.63 554.67 155.48 553.19 150.12 563.92 156.82"/><ellipse class="cls-18" cx="557.15" cy="364.43" rx="2.15" ry="3.43" transform="translate(-82.74 -46.13) rotate(-10.09)"/><ellipse class="cls-18" cx="532.72" cy="255.4" rx="2.39" ry="3.81"/><ellipse class="cls-18" cx="534.72" cy="303.14" rx="2.39" ry="3.81"/><ellipse class="cls-18" cx="559.83" cy="503.6" rx="3.81" ry="2.39" transform="translate(0.44 887.24) rotate(-87.04)"/><circle class="cls-19" cx="523.71" cy="407.47" r="2.68"/><path class="cls-12" d="M561,232c0,2.76-4.48,5-10,5s-10-2.24-10-5,4.48-5,10-5S561,229.24,561,232Z" transform="translate(-27.5 -149.39)"/><ellipse class="cls-20" cx="523.75" cy="83.79" rx="4.11" ry="4.31"/><path class="cls-12" d="M597,232c0,2.76-4.48,5-10,5s-10-2.24-10-5,4.48-5,10-5S597,229.24,597,232Z" transform="translate(-27.5 -149.39)"/><ellipse class="cls-20" cx="559.75" cy="83.79" rx="4.11" ry="4.31"/><path class="cls-12" d="M477.25,310.85s-35.74,29.79-38.72,157.86c0,0-3,8.94,8.94,20.85s119.14,44.68,119.14,44.68,0-11.91,8.94-14.89L471.3,471.69s-10.92-5-9.93-12.91,24.82-76.45,24.82-97.3S477.25,310.85,477.25,310.85Z" transform="translate(-27.5 -149.39)"/><path class="cls-21" d="M509.37,226.65S522,218.21,522,230.87v4.22h4.22v-4.22S524.16,217.22,530,216c9.52-2-1-13-1-13s6.73,2.75,24,3c11.4.16,27.1-16.3,46-10,12,4,27,0,35-9,4.11-4.62,2-16,2-16s-.74,3.63-10,7c-11,4-26-10-21-8s10-3,10-3-11,3-29-4c-7.31-2.84-23-4.54-30.19-8.11-33.77-16.89-57,10.55-57,10.55S466,191.41,495,254l20,20S500.93,235.09,509.37,226.65Z" transform="translate(-27.5 -149.39)"/><path class="cls-8" d="M506.87,240.68A21.35,21.35,0,0,1,500,227c-1-9,13-5,15-4S506.87,240.68,506.87,240.68Z" transform="translate(-27.5 -149.39)"/><path class="cls-22" d="M566.95,517.91s37.87,1.42,35.19,20.19H580.69l2.68,5.36h2.68l-2.68-5.36h-8a26.41,26.41,0,0,1-15.07-10.16Z" transform="translate(-27.5 -149.39)"/><line class="cls-23" x1="566.6" y1="383.34" x2="567.94" y2="388.7"/><line class="cls-23" x1="561.24" y1="383.34" x2="562.58" y2="388.7"/><line class="cls-23" x1="555.87" y1="383.34" x2="557.21" y2="388.7"/><line class="cls-23" x1="550.51" y1="383.34" x2="551.85" y2="388.7"/><path class="cls-14" d="M475.25,307.85c-3,0-35.74,29.79-38.72,157.86,0,0-3,8.94,8.94,20.85s119.14,44.68,119.14,44.68a19.45,19.45,0,0,1,3-8.94L463.34,483.59s-7.65-4.63-11.91-8.94c-1.17-1.18,9.88-10.16,8.94-11.91-.69-1.28-10.79,8.62-11.25,7q-.24-.87-.43-1.81c-.28-1.38-.23-2.19-.53-4.49,24.13-9.62,0-.28,0-.42a40.15,40.15,0,0,1,.32-6.22C449.31,449.88,478.23,307.85,475.25,307.85Z" transform="translate(-27.5 -149.39)"/><path class="cls-22" d="M722.43,517.91s37.87,1.42,35.19,20.19H736.17l2.68,5.36h2.68l-2.68-5.36h-8a26.41,26.41,0,0,1-15.07-10.16Z" transform="translate(-27.5 -149.39)"/><line class="cls-23" x1="722.08" y1="383.34" x2="723.42" y2="388.7"/><line class="cls-23" x1="716.72" y1="383.34" x2="718.06" y2="388.7"/><line class="cls-23" x1="711.35" y1="383.34" x2="712.69" y2="388.7"/><line class="cls-23" x1="705.99" y1="383.34" x2="707.33" y2="388.7"/><path class="cls-20" d="M536.5,224.5s8-7,15-6,6-5,0-5S536.5,224.5,536.5,224.5Z" transform="translate(-27.5 -149.39)"/><path class="cls-20" d="M601.38,224.5s-8-7-15-6-6-5,0-5S601.38,224.5,601.38,224.5Z" transform="translate(-27.5 -149.39)"/><path class="cls-24" d="M519,283s29,20,62,17l-2-12s-34.66,1.34-61.33-8.83Z" transform="translate(-27.5 -149.39)"/><path class="cls-21" d="M578.34,262.06c-9.34-.19-23.45,5.14-29.63-4.75-1-1.63-3.62-.13-2.59,1.51,7.07,11.32,21.47,6,32.22,6.24,1.93,0,1.93-3,0-3Z" transform="translate(-27.5 -149.39)"/><path class="cls-21" d="M571.5,236.47a24.5,24.5,0,0,0,3.06,6.46,14.71,14.71,0,0,1,1.93,4.26c.62,2.86-1,6.82-4.58,5.58-.91-.32-1.31,1.13-.4,1.45a5.12,5.12,0,0,0,6.53-4c1.21-5.2-3.92-9.5-5.1-14.17a.75.75,0,0,0-1.45.4Z" transform="translate(-27.5 -149.39)"/><rect class="cls-25" x="827.12" y="268.57" width="100.87" height="25.81" rx="4.5" ry="4.5"/><path class="cls-25" d="M951,418.46a4,4,0,0,1,4,4v16.81a4,4,0,0,1-4,4H859.12a4,4,0,0,1-4-4V422.46a4,4,0,0,1,4-4H951m0-1H859.12a5,5,0,0,0-5,5v16.81a5,5,0,0,0,5,5H951a5,5,0,0,0,5-5V422.46a5,5,0,0,0-5-5Z" transform="translate(-27.5 -149.39)"/><rect class="cls-14" x="683.5" y="169.61" width="327" height="186" rx="12" ry="12"/><rect class="cls-14" x="683.5" y="169.61" width="327" height="186" rx="12" ry="12"/><rect class="cls-14" x="683.5" y="169.61" width="327" height="186" rx="12" ry="12"/><rect class="cls-19" x="683.5" y="169.61" width="327" height="186" rx="12" ry="12"/><path class="cls-14" d="M721.38,505h19.9s-15.57-1.13-15.57-17V334c0-13,15.57-15,15.57-15h-19.9c-5.71,0-10.38,5.4-10.38,12V493C711,499.6,715.67,505,721.38,505Z" transform="translate(-27.5 -149.39)"/><path class="cls-14" d="M721.38,505h19.9s-15.57-1.13-15.57-17V334c0-13,15.57-15,15.57-15h-19.9c-5.71,0-10.38,5.4-10.38,12V493C711,499.6,715.67,505,721.38,505Z" transform="translate(-27.5 -149.39)"/><path class="cls-14" d="M721.38,505h19.9s-15.57-1.13-15.57-17V334c0-13,15.57-15,15.57-15h-19.9c-5.71,0-10.38,5.4-10.38,12V493C711,499.6,715.67,505,721.38,505Z" transform="translate(-27.5 -149.39)"/><path class="cls-14" d="M721.38,505h19.9s-15.57-1.13-15.57-17V334c0-13,15.57-15,15.57-15h-19.9c-5.71,0-10.38,5.4-10.38,12V493C711,499.6,715.67,505,721.38,505Z" transform="translate(-27.5 -149.39)"/><path class="cls-14" d="M813.94,366h8.65c-5.71,0-10.38,5.4-10.38,12v75.89c0,6.6,4.67,12,10.38,12h-8.65c-5.71,0-10.38-5.4-10.38-12V378C803.56,371.4,808.23,366,813.94,366Z" transform="translate(-27.5 -149.39)"/><path class="cls-14" d="M813.94,366h8.65c-5.71,0-10.38,5.4-10.38,12v75.89c0,6.6,4.67,12,10.38,12h-8.65c-5.71,0-10.38-5.4-10.38-12V378C803.56,371.4,808.23,366,813.94,366Z" transform="translate(-27.5 -149.39)"/><path class="cls-14" d="M813.94,366h8.65c-5.71,0-10.38,5.4-10.38,12v75.89c0,6.6,4.67,12,10.38,12h-8.65c-5.71,0-10.38-5.4-10.38-12V378C803.56,371.4,808.23,366,813.94,366Z" transform="translate(-27.5 -149.39)"/><path class="cls-14" d="M813.94,366h8.65c-5.71,0-10.38,5.4-10.38,12v75.89c0,6.6,4.67,12,10.38,12h-8.65c-5.71,0-10.38-5.4-10.38-12V378C803.56,371.4,808.23,366,813.94,366Z" transform="translate(-27.5 -149.39)"/><path class="cls-14" d="M812.21,453.89V378c0-6.6,4.67-12,10.38-12H977.44c5.71,0,10.38,5.4,10.38,12v75.89c0,6.6-4.67,12-10.38,12H822.6C816.89,465.89,812.21,460.49,812.21,453.89Z" transform="translate(-27.5 -149.39)"/><path class="cls-14" d="M812.21,453.89V378c0-6.6,4.67-12,10.38-12H977.44c5.71,0,10.38,5.4,10.38,12v75.89c0,6.6-4.67,12-10.38,12H822.6C816.89,465.89,812.21,460.49,812.21,453.89Z" transform="translate(-27.5 -149.39)"/><path class="cls-14" d="M812.21,453.89V378c0-6.6,4.67-12,10.38-12H977.44c5.71,0,10.38,5.4,10.38,12v75.89c0,6.6-4.67,12-10.38,12H822.6C816.89,465.89,812.21,460.49,812.21,453.89Z" transform="translate(-27.5 -149.39)"/><path class="cls-26" d="M812.21,453.89V378c0-6.6,4.67-12,10.38-12H977.44c5.71,0,10.38,5.4,10.38,12v75.89c0,6.6-4.67,12-10.38,12H822.6C816.89,465.89,812.21,460.49,812.21,453.89Z" transform="translate(-27.5 -149.39)"/><path class="cls-27" d="M907.74,538.09c0-15.51-27.4-100.75-29.37-106.87C878.29,431,877,428,877,428l57.54.19,32.17,107.23s7.15,21.45-7.15,21.45h-92s1.43-.1,3.76-.36C881.28,555.37,907.74,551.14,907.74,538.09Z" transform="translate(-27.5 -149.39)"/><path class="cls-26" d="M871.29,556.5H858.53s40.21-2.66,40.21-18.59S867,428,867,428h10c2,6.12,30.74,94.59,30.74,110.09C907.74,551.14,881.28,555.37,871.29,556.5Z" transform="translate(-27.5 -149.39)"/><path class="cls-28" d="M574.5,231.5c1.57,4.72,4.55,8.5,13.25,8.5s15.75-4,15.75-9-1.42-7.07-10-8.5c-6-1-13.17-.54-16,1C574.5,225.14,573,227,574.5,231.5Z" transform="translate(-27.5 -149.39)"/><path class="cls-29" d="M574.5,231.5c1.57,4.72,4.55,8.5,13.25,8.5s15.75-4,15.75-9-1.42-7.07-10-8.5c-6-1-13.17-.54-16,1C574.5,225.14,573,227,574.5,231.5Z" transform="translate(-27.5 -149.39)"/><path class="cls-28" d="M565.91,232.5c-1.57,4.72-4.55,8.5-13.25,8.5s-15.75-4-15.75-9,1.42-7.07,10-8.5c6-1,13.17-.54,16,1C565.91,226.14,567.41,228,565.91,232.5Z" transform="translate(-27.5 -149.39)"/><path class="cls-29" d="M565.91,232.5c-1.57,4.72-4.55,8.5-13.25,8.5s-15.75-4-15.75-9,1.42-7.07,10-8.5c6-1,13.17-.54,16,1C565.91,226.14,567.41,228,565.91,232.5Z" transform="translate(-27.5 -149.39)"/><path class="cls-18" d="M536.93,231.1l-32-7.45.66-2.81,31.84,7.42A8.72,8.72,0,0,0,536.93,231.1Z" transform="translate(-27.5 -149.39)"/><path class="cls-8" d="M534,211s-15-2-19-14-3-10-3-10,9,14,17,16C529,203,534,209,534,211Z" transform="translate(-27.5 -149.39)"/><path class="cls-21" d="M491,169.92l-1.88-.13A40.88,40.88,0,0,1,503,167s-4.61,43.32-7,66c-2,19,18.71,40.56,18.71,40.56a103.64,103.64,0,0,1-10.68-7.7c-2.82-3.5-7.64-11.25-15.58-28.36C472.91,204,491,169.92,491,169.92Z" transform="translate(-27.5 -149.39)"/><path class="cls-8" d="M505.31,267.31l2.29,1.35S507,269,505.31,267.31Z" transform="translate(-27.5 -149.39)"/><path class="cls-30" d="M494,255c-21-26-15-52-15-70,0-8.34,5.36-12.81,11.12-15.21l1.88.13S473.91,204,489.45,237.5c7.94,17.11,12.76,24.86,15.58,28.36A77.25,77.25,0,0,1,494,255Z" transform="translate(-27.5 -149.39)"/><path class="cls-18" d="M603.73,227.27a8.39,8.39,0,0,1,.59,2.83l3.91-.68c0-1,.06-1.94.09-3Z" transform="translate(-27.5 -149.39)"/><path class="cls-31" d="M519,229s-1-13-14-6c-6,3.23,3.48,22.65,3.48,22.65s8.44,4.22,8.44-8.44" transform="translate(-27.5 -149.39)"/></g><g id="mesa"><rect class="cls-32" x="111.88" y="453.72" width="50.93" height="426.23"/><rect class="cls-33" x="111.88" y="453.72" width="16.08" height="426.23"/><g class="cls-9"><rect class="cls-34" x="111.88" y="453.72" width="50.93" height="42.89"/></g><rect class="cls-32" x="235.19" y="453.72" width="50.93" height="426.23"/><rect class="cls-33" x="235.19" y="453.72" width="16.08" height="426.23"/><g class="cls-9"><rect class="cls-34" x="235.19" y="453.72" width="50.93" height="42.89"/></g><rect class="cls-32" x="867.83" y="453.72" width="50.93" height="426.23"/><rect class="cls-33" x="867.83" y="453.72" width="16.08" height="426.23"/><g class="cls-9"><rect class="cls-34" x="867.83" y="453.72" width="50.93" height="42.89"/></g><rect class="cls-32" x="991.15" y="453.72" width="50.93" height="426.23"/><rect class="cls-33" x="991.15" y="453.72" width="16.08" height="426.23"/><g class="cls-9"><rect class="cls-34" x="991.15" y="453.72" width="50.93" height="42.89"/></g><rect class="cls-32" x="39.5" y="405.47" width="1083" height="48.25"/><g class="cls-9"><rect class="cls-10" x="39.5" y="405.47" width="158.16" height="48.25"/></g><rect class="cls-35" x="522.02" y="392.06" width="217.14" height="13.4"/></g></g></svg>