<?xml version="1.0" encoding="utf-8"?>
<!-- Generator: Adobe Illustrator 26.1.0, SVG Export Plug-In . SVG Version: 6.00 Build 0)  -->
<svg version="1.1" id="Capa_1" xmlns="http://www.w3.org/2000/svg" xmlns:xlink="http://www.w3.org/1999/xlink" x="0px" y="0px"
	 viewBox="0 0 1366 191" style="enable-background:new 0 0 1366 191;" xml:space="preserve">
<style type="text/css">
	.st0{fill:#FFFFFF;}
	.st1{fill:#575CA9;}
</style>
<path class="st0" d="M0,52.75c0,0,145.24,191.74,497.4,43.49c18.59-7.83,36.69-16.77,54.21-26.76
	c53.65-30.61,237.56-118.35,425.44-8.76c223.32,130.27,389.49-30.57,389.49-30.57V191H0V52.75z"/>
<path class="st1" d="M738.85,29.45C683,39,607.1,75.54,609.96,100.45c2.65,22.98,88.08,31.98,144.95,29.7
	c45.75-1.83,133.1-13.37,137.85-44.63c3.1-20.38-30.17-40.62-38.25-45.53C811.16,13.61,749.02,26.33,738.85,29.45z"/>
</svg>
