<?xml version="1.0" encoding="utf-8"?>
<!-- Generator: Adobe Illustrator 21.0.0, SVG Export Plug-In . SVG Version: 6.00 Build 0)  -->
<svg version="1.1" xmlns="http://www.w3.org/2000/svg" xmlns:xlink="http://www.w3.org/1999/xlink" x="0px" y="0px"
	 viewBox="0 0 1600 1200" style="enable-background:new 0 0 1600 1200;" xml:space="preserve">
<style type="text/css">
	.st0{fill:#727AD6;stroke:#727AD6;stroke-miterlimit:10;}
	.st1{fill:none;stroke:#FFFFFF;stroke-width:17;stroke-miterlimit:10;}
	.st2{fill:#FFFFFF;stroke:#FFFFFF;stroke-width:17;stroke-miterlimit:10;}
	.st3{fill:#FFFFFF;stroke:#FFFFFF;stroke-width:8;stroke-miterlimit:10;}
	.st4{fill:#FFFFFF;stroke:#FFFFFF;stroke-width:14;stroke-miterlimit:10;}
	.st5{fill:#FFFFFF;stroke:#FFFFFF;stroke-width:4;stroke-miterlimit:10;}
	.st6{fill:#FFFFFF;stroke:#FFFFFF;stroke-width:9;stroke-miterlimit:10;}
	.st7{fill:none;stroke:#FFFFFF;stroke-width:9;stroke-miterlimit:10;}
	.st8{fill:#727AD6;stroke:#FFFFFF;stroke-width:9;stroke-miterlimit:10;}
</style>
<g id="Capa_2">
	<rect x="-0.5" y="-0.5" class="st0" width="1600" height="1200"/>
</g>
<g id="Capa_1">
	<path class="st1" d="M1157.9,790.5H440.5c-25.3,0-46.1-20.7-46.1-46.1V278c0-25.3,20.7-46.1,46.1-46.1h717.5
		c25.3,0,46.1,20.7,46.1,46.1v466.4C1204,769.8,1183.3,790.5,1157.9,790.5z"/>
	<g>
		<path class="st2" d="M664.6,955.3c13.2-52.7,26.4-105.4,39.5-158.2"/>
		<line class="st2" x1="929.9" y1="955.3" x2="898.6" y2="797.1"/>
	</g>
	<path class="st3" d="M1029.8,972.6H567.9c-3,0-5.5-2.5-5.5-5.5v-7.1c0-3,2.5-5.5,5.5-5.5h461.9c3,0,5.5,2.5,5.5,5.5v7.1
		C1035.3,970.1,1032.8,972.6,1029.8,972.6z"/>
	<line class="st4" x1="399.3" y1="670.2" x2="1204" y2="670.2"/>
	<circle class="st5" cx="798.1" cy="732.8" r="15.7"/>
	<g>
		<line class="st6" x1="673.8" y1="585.6" x2="673.8" y2="316.7"/>
		<path class="st7" d="M743.3,459.3l99.4,66.6c2.5,1.7,5.7,1.1,7.6-1.2c17.6-21.4,73.4-32.9,73.4-32.9v-37.3v-37.3
			c0,0-55.8-11.5-73.4-32.9c-1.9-2.3-5.2-2.8-7.6-1.2l-99.4,66.6C739.9,452.1,739.9,457.1,743.3,459.3z"/>
		<line class="st6" x1="845.2" y1="454.6" x2="740.9" y2="454.6"/>
		<path class="st7" d="M803.6,566.3c-71.3,8-132.1-48.8-131.6-113.6c0.4-65,62.2-121,133.5-111.8"/>
		<path class="st8" d="M694.9,576.3v18.6c0,6.5-5.3,11.8-11.8,11.8h-18.6c-6.5,0-11.8-5.3-11.8-11.8v-18.6c0-6.5,5.3-11.8,11.8-11.8
			h18.6C689.7,564.5,694.9,569.8,694.9,576.3z"/>
		<path class="st8" d="M694.9,313v18.6c0,6.5-5.3,11.8-11.8,11.8h-18.6c-6.5,0-11.8-5.3-11.8-11.8V313c0-6.5,5.3-11.8,11.8-11.8
			h18.6C689.7,301.2,694.9,306.5,694.9,313z"/>
		<circle class="st8" cx="673.2" cy="454.6" r="19.9"/>
		<circle class="st8" cx="805.5" cy="341" r="19.9"/>
		<circle class="st8" cx="845.2" cy="454.6" r="19.9"/>
		<circle class="st8" cx="805.5" cy="565.7" r="19.9"/>
		<path class="st6" d="M951.8,404.1v101c0,4.3-3.5,7.9-7.9,7.9h-12.4c-4.3,0-7.9-3.5-7.9-7.9v-101c0-4.3,3.5-7.9,7.9-7.9h12.4
			C948.2,396.2,951.8,399.8,951.8,404.1z"/>
	</g>
</g>
</svg>
